<svg width="25" height="26" viewBox="0 0 25 26" fill="none" xmlns="http://www.w3.org/2000/svg">
<g clip-path="url(#clip0_3217_917)">
<path fill-rule="evenodd" clip-rule="evenodd" d="M16.1265 15.5868C15.7352 16.0712 15.2398 16.4845 14.6521 16.7901C14.1932 17.0287 13.7129 17.1835 13.2287 17.2599L11.9053 18.0239C12.9338 18.1394 14.0066 17.9609 14.9939 17.4476C16.1328 16.8555 16.9723 15.9142 17.4495 14.823L16.1265 15.5868ZM8.5723 10.1538C8.99756 9.48453 9.59956 8.91497 10.3537 8.52285C10.9781 8.19826 11.642 8.02888 12.3015 8.00078L13.447 7.33939C12.3153 7.13761 11.1107 7.2941 10.0119 7.86537C8.76121 8.51563 7.8716 9.58692 7.42643 10.8154L8.5723 10.1538Z" fill="#FF0004"/>
<path fill-rule="evenodd" clip-rule="evenodd" d="M20.4561 13.0875C20.3064 15.8051 18.7666 18.3758 16.1768 19.7222C13.8106 20.9525 11.1113 20.8783 8.9006 19.7591L8.14741 20.194C10.6357 21.629 13.7811 21.803 16.5186 20.3797C19.4999 18.8297 21.2083 15.7955 21.2094 12.6527L20.4561 13.0875ZM4.54082 12.4819C4.60519 9.67096 6.15936 6.98044 8.83011 5.59186C11.2776 4.31935 14.0815 4.44248 16.3324 5.674L17.0722 5.24686C14.5522 3.69643 11.3044 3.4702 8.48827 4.93437C5.42877 6.52506 3.70982 9.67884 3.801 12.909L4.54082 12.4819Z" fill="#FF0004"/>
<path fill-rule="evenodd" clip-rule="evenodd" d="M9.06881 5.95484C9.03585 5.93067 8.98948 5.95478 8.99034 5.99564L9.00317 6.6065C9.00351 6.62272 8.99584 6.63808 8.98267 6.64756L8.48673 7.00443C8.45355 7.02831 8.46215 7.07986 8.50128 7.09167L9.08621 7.26824C9.10174 7.27293 9.11398 7.28496 9.11893 7.30042L9.30508 7.88236C9.31753 7.92129 9.36922 7.92905 9.39255 7.89548L9.74122 7.39375C9.75048 7.38042 9.76571 7.3725 9.78194 7.37258L10.3929 7.37536C10.4338 7.37555 10.4571 7.32879 10.4324 7.29623L10.063 6.80958C10.0532 6.79665 10.0504 6.77972 10.0554 6.76431L10.2469 6.18409C10.2597 6.14527 10.2224 6.10862 10.1838 6.12207L9.60686 6.32303C9.59153 6.32837 9.57455 6.32582 9.56147 6.31622L9.06881 5.95484ZM16.2598 19.3582C16.2606 19.399 16.2143 19.4231 16.1813 19.399L15.6887 19.0376C15.6756 19.028 15.6586 19.0254 15.6433 19.0308L15.0663 19.2317C15.0277 19.2452 14.9904 19.2085 15.0032 19.1697L15.1947 18.5895C15.1998 18.5741 15.1969 18.5571 15.1871 18.5442L14.8177 18.0576C14.793 18.025 14.8163 17.9782 14.8572 17.9784L15.4682 17.9812C15.4844 17.9813 15.4996 17.9734 15.5089 17.96L15.8576 17.4583C15.8809 17.4248 15.9326 17.4325 15.945 17.4714L16.1312 18.0534C16.1361 18.0688 16.1484 18.0809 16.1639 18.0856L16.7488 18.2621C16.788 18.2739 16.7966 18.3255 16.7634 18.3494L16.2675 18.7062C16.2543 18.7157 16.2466 18.7311 16.247 18.7473L16.2598 19.3582ZM12.7279 5.19507C12.7476 5.15925 12.7998 5.16155 12.8163 5.19897L13.0095 5.63836C13.0161 5.65321 13.0295 5.6639 13.0454 5.66694L13.5169 5.75686C13.5571 5.76452 13.571 5.81489 13.5405 5.8421L13.1823 6.16165C13.1702 6.17246 13.1642 6.18853 13.1663 6.20463L13.2264 6.68084C13.2316 6.72139 13.188 6.75022 13.1527 6.72962L12.7381 6.48773C12.7241 6.47955 12.7069 6.47879 12.6922 6.4857L12.2579 6.6901C12.2209 6.7075 12.18 6.67495 12.1887 6.635L12.2907 6.16596C12.2941 6.1501 12.2895 6.13355 12.2784 6.12172L11.9498 5.77184C11.9218 5.74205 11.9402 5.6931 11.9808 5.68901L12.4584 5.64102C12.4746 5.63939 12.4889 5.62993 12.4967 5.6157L12.7279 5.19507ZM19.0311 16.7248C19.0523 16.7597 19.0242 16.8038 18.9836 16.7994L18.5064 16.747C18.4903 16.7452 18.4743 16.7515 18.4637 16.7638L18.1501 17.1272C18.1234 17.1581 18.0728 17.145 18.0645 17.105L17.9668 16.635C17.9635 16.6191 17.9526 16.6059 17.9377 16.5996L17.4952 16.4136C17.4575 16.3978 17.4543 16.3456 17.4898 16.3253L17.9066 16.0872C17.9207 16.0792 17.9299 16.0647 17.9313 16.0485L17.9714 15.5702C17.9748 15.5295 18.0235 15.5104 18.0537 15.5378L18.4089 15.8607C18.421 15.8716 18.4376 15.8759 18.4534 15.8722L18.9207 15.7625C18.9605 15.7532 18.9937 15.7935 18.9769 15.8308L18.7797 16.2684C18.773 16.2832 18.774 16.3003 18.7824 16.3142L19.0311 16.7248ZM6.32619 8.71799C6.28556 8.71353 6.25746 8.7576 6.27863 8.79256L6.52731 9.20312C6.53572 9.217 6.53675 9.23414 6.53008 9.24893L6.33285 9.68654C6.31606 9.7238 6.34928 9.76415 6.38908 9.75481L6.85639 9.64518C6.87219 9.64147 6.8888 9.64578 6.90081 9.65669L7.25605 9.9795C7.2863 10.007 7.33494 9.98785 7.33836 9.94712L7.3785 9.46881C7.37986 9.45263 7.38908 9.43816 7.40318 9.43011L7.81996 9.19201C7.85545 9.17174 7.85228 9.11957 7.8146 9.10373L7.3721 8.91775C7.35714 8.91146 7.34623 8.89821 7.34293 8.88232L7.24527 8.41236C7.23696 8.37234 7.18636 8.35923 7.15966 8.39017L6.84604 8.75354C6.83543 8.76583 6.81946 8.77211 6.80333 8.77034L6.32619 8.71799ZM12.3342 20.0121C12.3507 20.0495 12.4029 20.0518 12.4226 20.016L12.6538 19.5954C12.6616 19.5811 12.6759 19.5717 12.6921 19.57L13.1697 19.5221C13.2103 19.518 13.2287 19.469 13.2007 19.4392L12.8721 19.0893C12.861 19.0775 12.8564 19.061 12.8598 19.0451L12.9618 18.5761C12.9705 18.5361 12.9296 18.5036 12.8926 18.521L12.4583 18.7254C12.4436 18.7323 12.4265 18.7315 12.4124 18.7233L11.9979 18.4814C11.9625 18.4608 11.919 18.4897 11.9241 18.5302L11.9843 19.0064C11.9863 19.0225 11.9803 19.0386 11.9682 19.0494L11.61 19.369C11.5795 19.3962 11.5934 19.4465 11.6336 19.4542L12.1051 19.5441C12.121 19.5472 12.1345 19.5579 12.141 19.5727L12.3342 20.0121Z" fill="#FF0004"/>
<rect x="3.28031" y="14.2899" width="17.259" height="6.6069" rx="0.642237" transform="rotate(-30 3.28031 14.2899)" stroke="#FF0004" stroke-width="0.741043"/>
<path d="M5.27569 15.2588C5.26248 15.2359 5.26732 15.2178 5.29021 15.2046L6.78712 14.3404C6.81001 14.3271 6.82806 14.332 6.84128 14.3549L7.05338 14.7222C7.06659 14.7451 7.06175 14.7632 7.03887 14.7764L6.03291 15.3572C6.01918 15.3651 6.01627 15.3759 6.0242 15.3897L6.2918 15.8532C6.29973 15.8669 6.31056 15.8698 6.32429 15.8619L7.16202 15.3782C7.18491 15.365 7.20296 15.3698 7.21617 15.3927L7.42629 15.7567C7.4395 15.7795 7.43467 15.7976 7.41178 15.8108L6.57405 16.2945C6.56032 16.3024 6.55742 16.3132 6.56535 16.327L6.84484 16.8111C6.85277 16.8248 6.8636 16.8277 6.87733 16.8198L7.88329 16.239C7.90618 16.2258 7.92423 16.2306 7.93744 16.2535L8.14954 16.6209C8.16276 16.6437 8.15792 16.6618 8.13503 16.675L6.63811 17.5393C6.61522 17.5525 6.59717 17.5476 6.58396 17.5247L5.27569 15.2588ZM9.82226 15.7009C9.79708 15.7154 9.77102 15.7152 9.74407 15.7003L8.91832 15.2294L8.90802 15.2354L8.89948 16.1879C8.89896 16.2187 8.88611 16.2414 8.86093 16.2559L8.38714 16.5295C8.37569 16.5361 8.3657 16.5373 8.35716 16.533C8.34729 16.5265 8.34249 16.5156 8.34275 16.5001L8.36774 14.9339L7.09048 14.2202C7.0793 14.2114 7.07287 14.2029 7.07119 14.1947C7.07048 14.1829 7.07585 14.1737 7.0873 14.1671L7.56452 13.8915C7.58741 13.8783 7.61233 13.8792 7.63928 13.8941L8.3748 14.3118L8.3851 14.3059L8.39117 13.46C8.39169 13.4292 8.40339 13.4072 8.42628 13.394L8.90351 13.1185C8.91496 13.1119 8.92447 13.1125 8.93204 13.1203C8.94058 13.1245 8.94587 13.1337 8.9479 13.1478L8.92393 14.6128L10.2963 15.3723C10.3075 15.3811 10.3134 15.3914 10.3141 15.4032C10.3158 15.4114 10.3109 15.4188 10.2995 15.4254L9.82226 15.7009ZM10.6213 15.2396C10.5984 15.2528 10.5803 15.248 10.5671 15.2251L9.25886 12.9591C9.24564 12.9362 9.25048 12.9181 9.27337 12.9049L10.1798 12.3816C10.3056 12.3089 10.4295 12.2618 10.5514 12.2403C10.6732 12.2188 10.7888 12.2207 10.8981 12.2462C11.0073 12.2716 11.1067 12.3195 11.1962 12.3899C11.2857 12.4603 11.3628 12.5516 11.4276 12.6637C11.491 12.7736 11.5297 12.8855 11.5436 12.9996C11.5599 13.1123 11.5517 13.2223 11.519 13.3296C11.4887 13.4356 11.4337 13.536 11.3542 13.6308C11.2746 13.7256 11.1719 13.8093 11.046 13.882L10.6306 14.1218C10.6168 14.1298 10.6139 14.1406 10.6219 14.1543L11.0718 14.9337C11.085 14.9566 11.0802 14.9746 11.0573 14.9878L10.6213 15.2396ZM10.7633 13.4638C10.8709 13.4017 10.9386 13.326 10.9664 13.2367C10.9929 13.1451 10.9784 13.0513 10.9229 12.9551C10.8674 12.859 10.7933 12.7995 10.7008 12.7766C10.6082 12.7538 10.5082 12.7734 10.4006 12.8355L10.0161 13.0575C10.0023 13.0654 9.99944 13.0763 10.0074 13.09L10.3463 13.6771C10.3543 13.6908 10.3651 13.6937 10.3788 13.6858L10.7633 13.4638ZM11.3376 11.7589C11.3244 11.736 11.3292 11.718 11.3521 11.7048L11.7882 11.453C11.811 11.4398 11.8291 11.4446 11.8423 11.4675L13.1506 13.7335C13.1638 13.7564 13.1589 13.7744 13.1361 13.7877L12.7 14.0394C12.6771 14.0526 12.6591 14.0478 12.6459 14.0249L11.3376 11.7589ZM14.9088 12.7642C14.8836 12.7787 14.8599 12.7772 14.8375 12.7596L13.9422 12.1366L13.6298 12.317C13.6161 12.3249 13.6132 12.3357 13.6211 12.3495L14.1028 13.1838C14.116 13.2066 14.1112 13.2247 14.0883 13.2379L13.6522 13.4896C13.6293 13.5029 13.6113 13.498 13.5981 13.4751L12.2898 11.2092C12.2766 11.1863 12.2814 11.1682 12.3043 11.155L13.2348 10.6178C13.3538 10.5491 13.4719 10.5053 13.5892 10.4864C13.7074 10.4639 13.8194 10.4649 13.9251 10.4894C14.033 10.5125 14.1311 10.5581 14.2192 10.6262C14.3097 10.693 14.3853 10.7791 14.4461 10.8844C14.5333 11.0354 14.5727 11.1882 14.5642 11.3426C14.5557 11.4971 14.5027 11.6406 14.4053 11.7731L15.3966 12.4276C15.4078 12.4364 15.4137 12.4467 15.4144 12.4585C15.4138 12.468 15.4078 12.4761 15.3964 12.4827L14.9088 12.7642ZM13.794 11.6499C13.8902 11.5944 13.9516 11.5238 13.9785 11.4382C14.0053 11.3525 13.9929 11.265 13.9414 11.1757C13.8912 11.0888 13.8223 11.0355 13.7346 11.0159C13.647 10.9963 13.5552 11.0142 13.459 11.0697L13.047 11.3076C13.0333 11.3155 13.0304 11.3263 13.0383 11.3401L13.3495 11.8791C13.3575 11.8928 13.3683 11.8957 13.382 11.8878L13.794 11.6499ZM14.4323 9.97221C14.4191 9.94932 14.4239 9.93127 14.4468 9.91806L15.9437 9.05381C15.9666 9.04059 15.9846 9.04543 15.9979 9.06832L16.21 9.43568C16.2232 9.45857 16.2183 9.47662 16.1954 9.48984L15.1895 10.0706C15.1758 10.0786 15.1729 10.0894 15.1808 10.1031L15.4484 10.5666C15.4563 10.5803 15.4671 10.5833 15.4809 10.5753L16.3186 10.0917C16.3415 10.0784 16.3595 10.0833 16.3728 10.1062L16.5829 10.4701C16.5961 10.493 16.5912 10.511 16.5684 10.5243L15.7306 11.0079C15.7169 11.0158 15.714 11.0267 15.7219 11.0404L16.0014 11.5245C16.0094 11.5382 16.0202 11.5411 16.0339 11.5332L17.0399 10.9524C17.0628 10.9392 17.0808 10.944 17.094 10.9669L17.3061 11.3343C17.3193 11.3572 17.3145 11.3752 17.2916 11.3885L15.7947 12.2527C15.7718 12.2659 15.7538 12.2611 15.7405 12.2382L14.4323 9.97221ZM16.3736 8.85141C16.3604 8.82852 16.3652 8.81047 16.3881 8.79725L17.2567 8.29575C17.4627 8.17682 17.6595 8.1212 17.847 8.12888C18.0346 8.13657 18.2078 8.21202 18.3668 8.35522C18.3945 8.38198 18.4223 8.41169 18.4503 8.44435C18.4793 8.4734 18.5099 8.51063 18.5423 8.55605C18.5769 8.60016 18.6145 8.65473 18.6551 8.71979C18.6957 8.78485 18.7438 8.86544 18.7993 8.96157C18.8548 9.0577 18.9005 9.13962 18.9366 9.20732C18.9726 9.27502 19.0011 9.33488 19.022 9.38691C19.0451 9.43762 19.0627 9.48393 19.0747 9.52584C19.0877 9.56413 19.0988 9.60195 19.1082 9.63928C19.1527 9.84856 19.1314 10.0363 19.0443 10.2026C18.9572 10.3689 18.8106 10.5115 18.6046 10.6304L17.736 11.1319C17.7131 11.1451 17.695 11.1403 17.6818 11.1174L16.3736 8.85141ZM17.9348 10.39C17.9427 10.4037 17.9535 10.4066 17.9673 10.3987L18.2316 10.246C18.3484 10.1786 18.4316 10.1062 18.4815 10.0286C18.5299 9.94869 18.5413 9.8521 18.5156 9.73879C18.5132 9.7188 18.5083 9.69719 18.501 9.67394C18.4924 9.64841 18.4793 9.61782 18.4618 9.58217C18.4465 9.54519 18.4244 9.50152 18.3953 9.45117C18.3672 9.3972 18.3313 9.33245 18.2877 9.25692C18.2441 9.18139 18.2066 9.11911 18.1753 9.07007C18.1462 9.01972 18.1195 8.9787 18.0951 8.94701C18.0729 8.91399 18.0537 8.88851 18.0372 8.87055C18.0194 8.85031 18.0018 8.83301 17.9843 8.81866C17.8991 8.73971 17.8104 8.70241 17.7183 8.70675C17.6249 8.70881 17.5198 8.74353 17.4031 8.81093L17.1387 8.96356C17.125 8.97149 17.1221 8.98232 17.13 8.99605L17.9348 10.39Z" fill="#FF0004"/>
</g>
<defs>
<clipPath id="clip0_3217_917">
<rect width="18" height="18" fill="white" transform="translate(0.205811 9.70605) rotate(-30)"/>
</clipPath>
</defs>
</svg>
