<svg width="35" height="35" viewBox="0 0 35 35" fill="none" xmlns="http://www.w3.org/2000/svg">
<circle cx="17.5" cy="17.5" r="17.5" fill="url(#paint0_linear_14_125)"/>
<g clip-path="url(#clip0_14_125)">
<path d="M22.4602 25.4465L18 24.1574L13.5398 25.4465C13.5012 25.5238 13.4883 25.6012 13.4883 25.6914V28.3555H22.5117V25.6914C22.5117 25.6012 22.4988 25.5238 22.4602 25.4465Z" fill="#646D73"/>
<path d="M22.5117 28.3555V25.6914C22.5117 25.6012 22.4988 25.5238 22.4602 25.4465L18 24.1574V28.3555H22.5117Z" fill="#474F54"/>
<path d="M28.3555 8.28906H25.0621C25.0678 8.07134 25.0898 7.86625 25.0898 7.64453C25.0898 7.28355 24.8063 7 24.4453 7H11.5547C11.1937 7 10.9102 7.28355 10.9102 7.64453C10.9102 7.86625 10.9322 8.07134 10.9378 8.28906H7.64453C7.28828 8.28906 7 8.57734 7 8.93359V10.5663C7 14.1651 9.88286 17.0886 13.4356 17.2768C14.1757 18.2958 15.0541 19.0521 16.0535 19.4781C15.8988 22.6105 14.107 24.7891 13.6817 25.2403C13.6172 25.2918 13.5656 25.3691 13.5398 25.4465H22.4602C22.4344 25.3691 22.3829 25.2918 22.3184 25.2403C21.8801 24.7891 20.1012 22.6234 19.9465 19.4781C20.9461 19.052 21.8298 18.2956 22.5705 17.2761C26.1202 17.0849 29 14.1631 29 10.5663V8.93359C29 8.57734 28.7117 8.28906 28.3555 8.28906ZM8.28906 10.5663V9.57812H10.9931C11.1604 11.7084 11.6223 13.9646 12.5932 15.882C10.1595 15.3339 8.28906 13.1636 8.28906 10.5663ZM27.7109 10.5663C27.7109 13.1622 25.8422 15.3316 23.4102 15.8809C24.3735 13.9636 24.838 11.7292 25.0069 9.57812H27.7109V10.5663Z" fill="#FED843"/>
<path d="M28.3555 8.28906H25.0621C25.0678 8.07134 25.0898 7.86625 25.0898 7.64453C25.0898 7.28355 24.8063 7 24.4453 7H18V25.4465H22.4602C22.4344 25.3691 22.3829 25.2918 22.3184 25.2403C21.8801 24.7891 20.1012 22.6234 19.9465 19.4781C20.9461 19.052 21.8298 18.2956 22.5705 17.2761C26.1202 17.0849 29 14.1631 29 10.5663V8.93359C29 8.57734 28.7117 8.28906 28.3555 8.28906ZM27.7109 10.5663C27.7109 13.1622 25.8422 15.3316 23.4102 15.8809C24.3736 13.9636 24.8381 11.7292 25.0069 9.57812H27.7109V10.5663Z" fill="#FABE2C"/>
<path d="M19.0285 15.1979L18 14.6635L16.9715 15.1979C16.7563 15.3087 16.4932 15.2905 16.2956 15.1476C16.0979 15.0041 15.9985 14.7611 16.0387 14.5207L16.2276 13.3757L15.4031 12.5619C15.2236 12.3869 15.1687 12.1275 15.2419 11.9035C15.3175 11.6719 15.5176 11.5019 15.7593 11.4655L16.9049 11.293L17.4235 10.2563C17.6425 9.81951 18.3575 9.81951 18.5766 10.2563L19.0952 11.293L20.2408 11.4655C20.4825 11.502 20.6826 11.6719 20.7582 11.9035C20.8337 12.1358 20.772 12.3907 20.597 12.5619L19.7725 13.3757L19.9613 14.5207C20.0017 14.7611 19.9022 15.0041 19.7045 15.1476C19.5082 15.2899 19.2456 15.3109 19.0285 15.1979Z" fill="#FABE2C"/>
<path d="M19.0285 15.198C19.2456 15.3109 19.5082 15.2899 19.7045 15.1476C19.9021 15.0041 20.0016 14.7611 19.9613 14.5207L19.7725 13.3758L20.597 12.5619C20.772 12.3907 20.8337 12.1358 20.7581 11.9036C20.6826 11.6719 20.4824 11.502 20.2407 11.4655L19.0952 11.293L18.5766 10.2563C18.467 10.0379 18.2335 9.92871 18 9.92871V14.6636L19.0285 15.198Z" fill="#FF9100"/>
<path d="M23.1562 29H12.8438C12.4875 29 12.1992 28.7117 12.1992 28.3555C12.1992 27.9992 12.4875 27.7109 12.8438 27.7109H23.1562C23.5125 27.7109 23.8008 27.9992 23.8008 28.3555C23.8008 28.7117 23.5125 29 23.1562 29Z" fill="#474F54"/>
<path d="M23.1562 27.7109H18V29H23.1562C23.5125 29 23.8008 28.7117 23.8008 28.3555C23.8008 27.9992 23.5125 27.7109 23.1562 27.7109Z" fill="#32393F"/>
</g>
<defs>
<linearGradient id="paint0_linear_14_125" x1="36.1713" y1="35" x2="33.8848" y2="0.145467" gradientUnits="userSpaceOnUse">
<stop stop-color="#00430B"/>
<stop offset="1" stop-color="#00AE00"/>
</linearGradient>
<clipPath id="clip0_14_125">
<rect width="22" height="22" fill="white" transform="translate(8 7)"/>
</clipPath>
</defs>
</svg>
