<svg width="26" height="26" viewBox="0 0 26 26" fill="none" xmlns="http://www.w3.org/2000/svg">
<rect width="26" height="26" rx="5.41667" fill="#FADDF9"/>
<path d="M19.7608 8.0238C19.6123 7.61527 19.376 7.24425 19.0686 6.93687C18.7612 6.62948 18.3902 6.3932 17.9817 6.24463C17.2175 5.99963 16.5233 5.99963 15.1117 5.99963H10.8767C9.47667 5.99963 8.77083 5.99963 8.01833 6.23297C7.60921 6.38215 7.23782 6.61933 6.93039 6.92776C6.62297 7.23619 6.38701 7.60835 6.23917 8.01797C6 8.7763 6 9.4763 6 10.8763V15.1171C6 16.523 6 17.2171 6.23333 17.9755C6.3819 18.384 6.61818 18.755 6.92557 19.0624C7.23295 19.3698 7.60397 19.6061 8.0125 19.7546C8.77083 19.9938 9.47083 19.9938 10.8708 19.9938H15.1175C16.5233 19.9938 17.2233 19.9938 17.9758 19.7605C18.386 19.612 18.7586 19.3752 19.067 19.0667C19.3755 18.7582 19.6124 18.3857 19.7608 17.9755C20 17.2171 20 16.5171 20 15.1171V10.888C20 9.48213 20 8.78213 19.7608 8.0238ZM16.1617 10.7246L15.6192 11.2671C15.5663 11.3163 15.4971 11.3441 15.4249 11.3452C15.3527 11.3463 15.2826 11.3205 15.2283 11.273C14.7029 10.8293 14.0377 10.5855 13.35 10.5846C12.7842 10.5846 12.2183 10.7713 12.2183 11.2905C12.2183 11.8155 12.825 11.9905 13.525 12.253C14.75 12.6613 15.765 13.1746 15.765 14.3763C15.765 15.683 14.75 16.5813 13.0933 16.6805L12.9417 17.3805C12.9283 17.4448 12.8931 17.5025 12.8421 17.544C12.7911 17.5854 12.7274 17.608 12.6617 17.608H11.6175L11.565 17.6021C11.4903 17.5854 11.4251 17.5399 11.3836 17.4755C11.3422 17.4111 11.3277 17.333 11.3433 17.258L11.5067 16.5171C10.878 16.3595 10.2998 16.0443 9.82667 15.6013V15.5955C9.80056 15.5695 9.77985 15.5385 9.76572 15.5045C9.75159 15.4705 9.74431 15.434 9.74431 15.3971C9.74431 15.3603 9.75159 15.3238 9.76572 15.2898C9.77985 15.2557 9.80056 15.2248 9.82667 15.1988L10.41 14.633C10.463 14.5833 10.5328 14.5557 10.6054 14.5557C10.678 14.5557 10.7479 14.5833 10.8008 14.633C11.3317 15.1346 12.0433 15.4146 12.7783 15.403C13.5367 15.403 14.0442 15.0821 14.0442 14.5746C14.0442 14.0671 13.5308 13.933 12.5625 13.5713C11.5358 13.2038 10.5617 12.6846 10.5617 11.4713C10.5617 10.0596 11.7342 9.3713 13.1225 9.30713L13.2683 8.58963C13.2819 8.52587 13.3173 8.46883 13.3684 8.42837C13.4195 8.3879 13.4832 8.36654 13.5483 8.36797H14.5867L14.645 8.3738C14.7967 8.4088 14.8958 8.55463 14.8608 8.7063L14.7033 9.50547C15.2283 9.68047 15.7242 9.95463 16.15 10.3163L16.1617 10.328C16.2725 10.4446 16.2725 10.6196 16.1617 10.7246Z" fill="#D99BFF"/>
</svg>
